<?xml version="1.0" standalone="no"?>
<!DOCTYPE svg PUBLIC "-//W3C//DTD SVG 20010904//EN"
 "http://www.w3.org/TR/2001/REC-SVG-20010904/DTD/svg10.dtd">
<svg version="1.0" xmlns="http://www.w3.org/2000/svg"
 width="16.000000pt" height="16.000000pt" viewBox="0 0 16.000000 16.000000"
 preserveAspectRatio="xMidYMid meet">
<metadata>
Created by potrace 1.11, written by Peter Selinger 2001-2013
</metadata>
<g transform="translate(0.000000,16.000000) scale(0.006154,-0.006154)"
fill="#000000" stroke="none">
<path d="M1730 2156 c-349 -74 -538 -380 -500 -808 29 -326 170 -525 420 -594
136 -37 355 -27 511 22 l79 25 0 126 c0 102 -3 124 -14 120 -158 -61 -358 -83
-464 -52 -149 45 -232 203 -232 444 0 305 128 481 348 481 87 0 170 -23 307
-86 6 -2 22 26 36 63 15 38 36 92 48 121 l21 53 -55 24 c-143 64 -366 90 -505
61z"/>
<path d="M640 1488 c0 -674 -4 -764 -38 -822 -32 -55 -65 -71 -150 -71 -42 0
-90 2 -107 5 l-30 5 -3 -122 -3 -122 38 -8 c21 -4 90 -8 153 -7 94 1 126 5
173 23 122 48 200 141 237 285 19 76 20 110 20 788 l0 708 -145 0 -145 0 0
-662z"/>
</g>
</svg>
